<?xml version="1.0" encoding="utf-8"?>
<!-- Generator: Adobe Illustrator 21.0.0, SVG Export Plug-In . SVG Version: 6.00 Build 0)  -->
<svg version="1.1" id="Capa_1" xmlns="http://www.w3.org/2000/svg" xmlns:xlink="http://www.w3.org/1999/xlink" x="0px" y="0px"
	 viewBox="0 0 512 512" style="enable-background:new 0 0 512 512;" xml:space="preserve">
<style type="text/css">
	.st0{fill:#F5F6FA;}
</style>
<g>
	<g>
		<g>
			<path class="st0" d="M352.5,220c0-11-9-20-20-20h-206c-11,0-20,9-20,20s9,20,20,20h206C343.5,240,352.5,231,352.5,220z"/>
			<path class="st0" d="M126.5,280c-11,0-20,9-20,20s9,20,20,20h125.1c11,0,20-9,20-20s-9-20-20-20H126.5z"/>
			<path class="st0" d="M173.5,472H67.1c-0.3,0-0.6-0.2-0.6-0.6V40.6c0-0.3,0.2-0.6,0.6-0.6h324.8c0.3,0,0.6,0.2,0.6,0.6v171.8
				c0,0.1,0.1,0.3,0.1,0.4c17.6,19.8,39.9,7.6,39.9-9.8V1.2c0-0.7-0.5-1.2-1.2-1.2H27.8c-0.7,0-1.2,0.5-1.2,1.2v510.2
				c0,0.3,0.2,0.6,0.6,0.6h155.7c0.1,0,0.3-0.1,0.4-0.1C203.1,494.2,190.9,472,173.5,472z"/>
			<path class="st0" d="M467.9,289.6c-23.4-23.4-61.5-23.4-84.8,0L273.2,399.1c-2.3,2.3-4.1,5.2-5,8.3l-23.9,78.7
				c-2.1,7-0.3,14.6,4.8,19.8c3.8,3.9,9,6,14.3,6c1.8,0,3.6-0.2,5.3-0.7l80.7-22.4c3.3-0.9,6.4-2.7,8.8-5.1l109.6-109.4
				C491.3,351,491.3,313,467.9,289.6z M333.8,451.8L293.2,463l11.9-39.1l74.1-73.9l28.3,28.3L333.8,451.8z M439.6,346.1l-3.9,3.9
				l-28.3-28.3l3.9-3.9c7.8-7.8,20.5-7.8,28.3,0S447.4,338.3,439.6,346.1z"/>
			<path class="st0" d="M332.5,120h-206c-11,0-20,9-20,20s9,20,20,20h206c11,0,20-9,20-20S343.5,120,332.5,120z"/>
		</g>
	</g>
</g>
</svg>
