<?xml version="1.0" encoding="utf-8"?>
<!-- Generator: Adobe Illustrator 21.0.0, SVG Export Plug-In . SVG Version: 6.00 Build 0)  -->
<svg version="1.1" id="Layer_1" xmlns="http://www.w3.org/2000/svg" xmlns:xlink="http://www.w3.org/1999/xlink" x="0px" y="0px"
	 viewBox="0 0 512 512" style="enable-background:new 0 0 512 512;" xml:space="preserve">
<style type="text/css">
	.st0{fill:#F5F6FA;}
</style>
<g>
	<g>
		<g>
			<path class="st0" d="M341.3,0c-94.1,0-170.7,76.6-170.7,170.7c0,11.2,1.2,22.7,3.6,34.3l-19.1,9.5c-3.1,1.5-5.2,4.4-5.8,7.8
				c-0.6,3.4,0.6,6.8,3,9.3l13.8,13.8L155.6,256h-16.9c-5.9,0-10.7,4.8-10.7,10.7v16.9l-15.1,15.1H96c-5.9,0-10.7,4.8-10.7,10.7
				v16.9l-15.1,15.1H53.3c-5.9,0-10.7,4.8-10.7,10.7v16.9L3.1,408.5c-2,2-3.1,4.7-3.1,7.5v85.3c0,5.9,4.8,10.7,10.7,10.7H96
				c2.8,0,5.5-1.1,7.5-3.1l163.1-163.1l13.8,13.8c2.4,2.4,5.9,3.6,9.3,3c3.4-0.6,6.3-2.7,7.8-5.8l9.5-19.1
				C415.6,360.3,512,276,512,170.7C512,76.6,435.4,0,341.3,0z M303.9,315.1c-4.8-1.2-9.9,1.1-12.2,5.6l-6.7,13.3l-10.9-10.9
				c-4.2-4.2-10.9-4.2-15.1,0L91.6,490.7H21.3v-70.3l39.5-39.5c2-2,3.1-4.7,3.1-7.5v-10.7h10.7c2.8,0,5.5-1.1,7.5-3.1l21.3-21.3
				c2-2,3.1-4.7,3.1-7.5V320h10.7c2.8,0,5.5-1.1,7.5-3.1l21.3-21.3c2-2,3.1-4.7,3.1-7.5v-10.7H160c2.8,0,5.5-1.1,7.5-3.1l21.3-21.3
				c4.2-4.2,4.2-10.9,0-15.1L178,226.9l13.3-6.7c4.5-2.3,6.8-7.3,5.6-12.2c-3.3-12.7-4.9-25.2-4.9-37.4c0-82.3,67-149.3,149.3-149.3
				s149.3,67,149.3,149.3C490.7,265.2,402.5,340.5,303.9,315.1z"/>
			<path class="st0" d="M394.7,64c-29.4,0-53.3,23.9-53.3,53.3s23.9,53.3,53.3,53.3s53.3-23.9,53.3-53.3S424.1,64,394.7,64z
				 M394.7,149.3c-17.6,0-32-14.4-32-32s14.4-32,32-32s32,14.4,32,32S412.3,149.3,394.7,149.3z"/>
			<path class="st0" d="M216.5,280.5L67.1,429.8c-4.2,4.2-4.2,10.9,0,15.1c2.1,2.1,4.8,3.1,7.5,3.1s5.5-1,7.5-3.1l149.3-149.3
				c4.2-4.2,4.2-10.9,0-15.1C227.4,276.3,220.6,276.3,216.5,280.5z"/>
		</g>
	</g>
</g>
</svg>
