<?xml version="1.0" encoding="utf-8"?>
<!-- Generator: Adobe Illustrator 21.0.0, SVG Export Plug-In . SVG Version: 6.00 Build 0)  -->
<svg version="1.1" id="Capa_1" xmlns="http://www.w3.org/2000/svg" xmlns:xlink="http://www.w3.org/1999/xlink" x="0px" y="0px"
	 viewBox="0 0 512 512" style="enable-background:new 0 0 512 512;" xml:space="preserve">
<style type="text/css">
	.st0{fill:#F5F6FA;}
</style>
<g>
	<path class="st0" d="M431,159c0,0-137-137-137-137C280.4,8.4,261.7,0,241,0H59v512h394V212C453,191.3,444.6,172.6,431,159z
		 M316,86.4l50.6,50.6H316V86.4z M423,482H89V30h152c24.8,0,45,20.2,45,45v92h92c24.8,0,45,20.2,45,45V482z"/>
	<path class="st0" d="M134,407h176.5v30H134V407z"/>
	<path class="st0" d="M134,347h244v30H134V347z"/>
	<path class="st0" d="M134,287h244v30H134V287z"/>
	<path class="st0" d="M134,227h244v30H134V227z"/>
</g>
</svg>
