<?xml version="1.0" encoding="utf-8"?>
<!-- Generator: Adobe Illustrator 21.0.0, SVG Export Plug-In . SVG Version: 6.00 Build 0)  -->
<svg version="1.1" id="Layer_1" xmlns="http://www.w3.org/2000/svg" xmlns:xlink="http://www.w3.org/1999/xlink" x="0px" y="0px"
	 viewBox="0 0 512 512" style="enable-background:new 0 0 512 512;" xml:space="preserve">
<style type="text/css">
	.st0{fill:#333333;}
</style>
<g>
	<g>
		<path class="st0" d="M506.5,124.1L387.9,5.5c0,0,0,0,0,0c-3.4-3.4-8.2-5.5-13.2-5.5C359.6,0,33,0,18.7,0C8.4,0,0,8.4,0,18.7v474.5
			C0,503.6,8.4,512,18.7,512c22.6,0,452.4,0,474.5,0c10.3,0,18.7-8.4,18.7-18.7V137.4C512,132.4,510,127.6,506.5,124.1z M156.1,37.5
			h199.8v110.8H156.1V37.5z M400.5,474.5H111.6V316.9h288.9V474.5z M474.5,474.5h-36.6V298.2c0-10.3-8.4-18.7-18.7-18.7H92.8
			c-10.3,0-18.7,8.4-18.7,18.7v176.3H37.5V37.5h81.2V167c0,10.3,8.4,18.7,18.7,18.7h237.3c10.3,0,18.7-8.4,18.7-18.7V64l81.2,81.2
			V474.5z"/>
	</g>
</g>
<g>
	<g>
		<path class="st0" d="M309.5,55c-10.3,0-18.7,8.4-18.7,18.7V112c0,10.3,8.4,18.7,18.7,18.7c10.3,0,18.7-8.4,18.7-18.7V73.7
			C328.2,63.4,319.9,55,309.5,55z"/>
	</g>
</g>
</svg>
