<?xml version="1.0" encoding="utf-8"?><svg xmlns="http://www.w3.org/2000/svg" xmlns:xlink="http://www.w3.org/1999/xlink"><symbol id="svg--bars" viewBox="0 0 384 384" xml:space="preserve" xmlns="http://www.w3.org/2000/svg"><style>.ast0{fill:#f5f6fa}</style><path class="ast0" d="M368 207.7H16c-8.8 0-16-7.2-16-16s7.2-16 16-16h352c8.8 0 16 7.2 16 16s-7.2 16-16 16zM368 85H16C7.2 85 0 77.8 0 69s7.2-16 16-16h352c8.8 0 16 7.2 16 16s-7.2 16-16 16zm0 245.3H16c-8.8 0-16-7.2-16-16s7.2-16 16-16h352c8.8 0 16 7.2 16 16s-7.2 16-16 16z"/></symbol><symbol id="svg--basket" viewBox="0 0 512 512" xml:space="preserve" xmlns="http://www.w3.org/2000/svg"><style>.bst0{fill:#333}</style><path class="bst0" d="M463.9 114.4l-11.3-33.9c-4.3-12.9-16.4-21.5-30-21.5h-95V28c0-15.5-12.6-28-28-28h-87c-15.5 0-28 12.6-28 28v31h-95C76 59 64 67.7 59.7 80.6l-11.3 33.9c-2.6 7.7-1.3 16.3 3.5 22.9s12.4 10.5 20.6 10.5h11.8l26 321.6c1.9 23.9 22.2 42.6 46.1 42.6h204.9c23.9 0 44.2-18.7 46.1-42.6l26-321.6h6.5c8.1 0 15.8-3.9 20.6-10.5 4.6-6.7 5.9-15.2 3.4-23zM214.6 30h83.1v29h-83.1V30zm162.8 437c-.7 8.4-7.8 15-16.2 15H156.3c-8.4 0-15.5-6.6-16.2-15l-25.8-319.2h288.9L377.4 467zM78.8 117.8L88.1 90c.2-.6.8-1.1 1.5-1.1h333.1c.7 0 1.3.4 1.5 1.1l9.3 27.8H78.8z"/><path class="bst0" d="M329.5 466h.8c7.9 0 14.6-6.2 15-14.2l14.1-270.4c.4-8.3-5.9-15.3-14.2-15.8-8.3-.4-15.3 5.9-15.8 14.2l-14.1 270.4c-.4 8.3 5.9 15.3 14.2 15.8zm-161.9-14.2c.4 8 7.1 14.2 15 14.2h.8c8.3-.4 14.6-7.5 14.2-15.8l-14.8-270.4c-.4-8.3-7.5-14.6-15.8-14.2-8.3.4-14.6 7.5-14.2 15.8l14.8 270.4zm88.7 14.2c8.3 0 15-6.7 15-15V180.6c0-8.3-6.7-15-15-15s-15 6.7-15 15V451c0 8.3 6.7 15 15 15z"/></symbol><symbol viewBox="0 0 294.312 294.312" id="svg--calc" xmlns="http://www.w3.org/2000/svg"><path d="M26.812 0v294.312H267.5V0H26.812zM252.5 279.312H41.812V15H252.5v264.312z"/><path d="M243.822 23.822H50.489v107.621h193.333V23.822zm-15 92.621H65.489V38.822h163.333v77.621zM57.989 158.822H90.57v15H57.989zm0 34.375H90.57v15H57.989zm0 34.375H90.57v15H57.989zm56.586-68.75h32.581v15h-32.581zm0 34.375h32.581v15h-32.581zm0 34.375h32.581v15h-32.581zm56.585-68.75h32.581v15H171.16zm0 34.375h32.581v15H171.16zm0 34.375h32.581v15H171.16zm55.035-68.75h15v83.75h-15z"/></symbol><symbol id="svg--data" viewBox="0 0 512 512" xml:space="preserve" xmlns="http://www.w3.org/2000/svg"><style>.dst0{fill:#f5f6fa}</style><path class="dst0" d="M352.5 220c0-11-9-20-20-20h-206c-11 0-20 9-20 20s9 20 20 20h206c11 0 20-9 20-20zm-226 60c-11 0-20 9-20 20s9 20 20 20h125.1c11 0 20-9 20-20s-9-20-20-20H126.5z"/><path class="dst0" d="M173.5 472H67.1c-.3 0-.6-.2-.6-.6V40.6c0-.3.2-.6.6-.6h324.8c.3 0 .6.2.6.6v171.8c0 .1.1.3.1.4 17.6 19.8 39.9 7.6 39.9-9.8V1.2c0-.7-.5-1.2-1.2-1.2H27.8c-.7 0-1.2.5-1.2 1.2v510.2c0 .3.2.6.6.6h155.7c.1 0 .3-.1.4-.1 19.8-17.7 7.6-39.9-9.8-39.9z"/><path class="dst0" d="M467.9 289.6c-23.4-23.4-61.5-23.4-84.8 0L273.2 399.1c-2.3 2.3-4.1 5.2-5 8.3l-23.9 78.7c-2.1 7-.3 14.6 4.8 19.8 3.8 3.9 9 6 14.3 6 1.8 0 3.6-.2 5.3-.7l80.7-22.4c3.3-.9 6.4-2.7 8.8-5.1l109.6-109.4c23.5-23.3 23.5-61.3.1-84.7zM333.8 451.8L293.2 463l11.9-39.1 74.1-73.9 28.3 28.3-73.7 73.5zm105.8-105.7l-3.9 3.9-28.3-28.3 3.9-3.9c7.8-7.8 20.5-7.8 28.3 0s7.8 20.5 0 28.3zM332.5 120h-206c-11 0-20 9-20 20s9 20 20 20h206c11 0 20-9 20-20s-9-20-20-20z"/></symbol><symbol viewBox="0 0 511 511" id="svg--form" xmlns="http://www.w3.org/2000/svg"><path d="M343 56V32h-48.714C290.773 13.793 274.717 0 255.5 0s-35.273 13.793-38.786 32H168v24H72v455h367V56h-96zm81 440H87V71h81v16.5h15V47h48v-7.5c0-13.509 10.991-24.5 24.5-24.5S280 25.991 280 39.5V47h48v40.5h15V71h81v425z"/><path d="M247.5 32h16v15h-16zM104 479h303V88H104v391zm15-376h273v361H119V103z"/><path d="M231.502 136H359.5v15H231.502zm-80.002 0h63.998v15H151.5zm152.003 40H359.5v15h-55.997zM151.5 176h135.997v15H151.5zm47.999 40H359.5v15H199.499zm-47.999 0h32.002v15H151.5zm119.997 40H359.5v15h-88.003zM151.5 256h104v15h-104zm168.003 40H359.5v15h-39.997zM151.5 296h151.999v15H151.5zm72.003 40H359.5v15H223.503zm-72.003 0h55.997v15H151.5zm135.998 40H359.5v15h-72.002zM151.5 376h119.997v15H151.5zm47.999 40H359.5v15H199.499zm-47.999 0h32.002v15H151.5z"/></symbol><symbol id="svg--key" viewBox="0 0 512 512" xml:space="preserve" xmlns="http://www.w3.org/2000/svg"><style>.fst0{fill:#f5f6fa}</style><circle class="fst0" cx="364" cy="140.1" r="32"/><path class="fst0" d="M506.5 165.9c-10.7-27.2-30.3-66.4-62.9-98.9-32.6-32.4-71.4-51.4-98.2-61.7-29.5-11.3-62.9-4.2-85.3 18.1l-78.5 78.2c-23.3 23.2-30 58.8-16.7 88.7 4.1 9.3 8.6 18.3 13.4 27.1L5.9 389.8c-3.8 3.8-5.9 8.8-5.9 14.1v88c0 11 9 20 20 20h88c11 0 20-9 20-20v-36h36c11 0 20-9 20-20v-36h36c11 0 20-9 20-20s-9-20-20-20h-56c-11 0-20 9-20 20v36h-36c-11 0-20 9-20 20v36H40v-59.7l177.4-177.4c6.5-6.5 7.7-16.6 3-24.5-6.9-11.4-13.3-23.6-18.9-36.3-6.6-14.8-3.2-32.6 8.4-44.1l78.5-78.2c11.2-11.2 28-14.7 42.8-9.1 23.2 8.9 56.7 25.2 84.3 52.7 27.7 27.6 44.6 61.6 53.9 85.2 5.8 14.7 2.3 31.5-9 42.7l-79.5 79.1a40.334 40.334 0 01-44 8.6c-12.5-5.2-24.6-11.4-36-18.4-9.4-5.8-21.7-2.8-27.5 6.6-5.8 9.4-2.8 21.7 6.6 27.5 13.2 8.1 27.1 15.2 41.6 21.2 30.1 12.5 64.5 5.8 87.6-17.2l79.5-79.1c22.3-22.3 29.4-56 17.8-85.6z"/></symbol><symbol id="svg--load" viewBox="0 0 958 958" xml:space="preserve" xmlns="http://www.w3.org/2000/svg"><style>.gst0{fill:#333}</style><path class="gst0" d="M396.5 73v386.8H241L488 787l247-327.2H579.5V73z"/><path class="gst0" d="M846.9 856H117.4v-85H19v170l926-3.4V771h-98.1z"/></symbol><symbol viewBox="0 0 259.8 47.2" id="svg--logo-dark" xmlns="http://www.w3.org/2000/svg"><path d="M71.1 37.5c4.9 0 8.9-3 8.9-9.5V16.2c0-6.4-2.3-9.7-8.7-9.7h-10c-1.7 0-2.5 1-2.5 2.7s.8 2.7 2.5 2.7h9.5c2.7 0 3.6 1.6 3.6 4.1v2.4H65c-1.8 0-2.7.8-2.7 2.7 0 2.1.9 2.8 2.7 2.8h9.4v4.2c0 2.5-1.3 4-3.6 4h-9.5c-1.7 0-2.5 1-2.5 2.7s.8 2.7 2.5 2.7h9.8zm115.2-21.6h-2.9c-5.1 0-8.7 2.9-8.7 8.6V29c0 5.7 3.8 8.4 8.6 8.4h3.1c4.8 0 8.6-2.7 8.6-8.4v-4.6c0-5.6-3.6-8.5-8.7-8.5zm3.1 13.3c0 1.9-.9 3.3-3.4 3.3h-2.3c-2.5 0-3.4-1.3-3.4-3.3v-4.8c0-2.2 1-3.5 3.5-3.5h2.2c2.5 0 3.5 1.3 3.5 3.5v4.8h-.1zm-28.1-8h9.4c1.8 0 2.6-1 2.6-2.6 0-1.7-.9-2.7-2.6-2.7h-12.1c-1.9 0-2.8.9-2.8 2.7v16.3c0 1.9.9 2.6 2.8 2.6 1.8 0 2.7-.7 2.7-2.6V21.2zm-18.4-5.4H134c-1.9 0-2.7 1.7-2.7 2.9v26.5c0 1.1 1.1 2 2.8 2 1.9 0 2.7-1 2.7-2v-7.7h6.3c5.1 0 8.7-2.9 8.7-8.6v-4.6c0-5.6-3.8-8.5-8.9-8.5zm3.3 13c0 2.2-1 3.5-3.5 3.5h-5.9V21.2h6c2.5 0 3.4 1.3 3.4 3.3v4.3zm-27.4-13h-2.2c-5 0-8.8 3.2-8.8 8.7v4.6c0 5.3 3.6 8.3 8.6 8.3h6.8c1.1 0 2.3-.9 2.3-2.6 0-1.8-1.2-2.6-2.3-2.6H117c-2.2 0-3.7-1-3.7-2.8v-.3h11.2c2.3 0 3-1.8 3-2.8v-1.8c.1-5.6-3.8-8.7-8.7-8.7zm3.2 9h-8.6v-.3c0-2.1 1.4-3.4 3.4-3.4h1.7c2.3 0 3.5 1.3 3.5 3.4v.3zm-20.9 12.7c1.9 0 2.8-.7 2.8-2.6V18.4c0-1.7-.9-2.5-2.8-2.5-1.8 0-2.7.8-2.7 2.5v5.5H90v-5.5c0-1.7-.9-2.5-2.8-2.5s-2.8.8-2.8 2.5v16.4c0 1.9.9 2.6 2.8 2.6s2.8-.7 2.8-2.6v-5.9h8.4v5.9c0 1.9.9 2.7 2.7 2.7"/><path d="M20.1 22c0 .8-.2 1.6-.4 2-.4.8-.7 1.2-1.2 1.4-.5.3-1.3.4-2.7.4H4.5c-1.4 0-2.2-.1-2.7-.4-.4-.3-.8-.7-1.1-1.4-.2-.4-.4-1.2-.4-2s.2-1.6.4-2c.4-.8.7-1.2 1.2-1.4.5-.3 1.3-.4 2.7-.4h11.3c1.4 0 2.2.1 2.7.4s.8.7 1.2 1.4c.1.4.3 1.1.3 2M9.3 37.3c4.1 4.2 9.9 6.7 16.2 6.5 11.2-.3 20.5-9.3 21.1-20.5C47.4 10.6 37.3.1 24.8.1 18.7.1 13.2 2.6 9.2 6.6c-1.7 1.7-1.7 4.6 0 6.3s4.6 1.7 6.3 0c2.4-2.5 5.6-3.8 9.1-3.9 2.2 0 5.2.8 7.2 1.8 1 .5 3.5 2 4.7 3.3v.1c.9 1 .2 2.5-1.1 2.5h-4.8c-2.7 0-3 .3-3.8 1.8-1.2 2.1-1.2 4.8 0 6.9.9 1.5 1.2 1.8 3.8 1.8h4.8c1.3 0 2 1.5 1.1 2.5-1.2 1.3-3.6 2.8-4.7 3.3-2 1-5 1.8-7.2 1.8-3.4 0-6.7-1.4-9.1-3.9-1.7-1.7-4.6-1.7-6.3 0-1.6 1.8-1.6 4.7.1 6.4m204.8-16.1c1.7 0 2.5-1 2.5-2.7s-.9-2.7-2.5-2.7h-14.4c-1.7 0-2.5 1-2.5 2.7s.8 2.7 2.5 2.7h4.5v13.7c0 1.8.9 2.6 2.7 2.6 1.9 0 2.8-.8 2.8-2.6V21.2h4.4zm44.8-2.2c.1-.3.1-.5.1-.7 0-1.5-1.2-2.4-3-2.5-1.8-.1-2.2 1-2.7 2.1l-.9 2.8c-.9 2.4-2 2.9-3.9 2.9h-2.8v-5.1c0-1.7-.6-2.7-2.7-2.7s-2.8 1.1-2.8 2.7v16.1c0 2 1 2.8 2.7 2.8 2 0 2.8-.9 2.8-2.9v-6.1h2.9c2.1 0 3.4.5 4.3 3.1l1.2 3.6c.4 1.1.8 2.3 2.6 2.3s3.1-.8 3.1-2.3c0-.2 0-.5-.1-.7l-1.4-4.1c-.7-2.1-1.5-3.6-3.7-4.3 1.8-.7 2.5-2 3.3-4l1-3zm-31.5 18.5c5.3 0 8.9-2.7 8.9-8.4v-4.6c0-5.7-3.6-8.6-8.7-8.6H221c-1.1 0-2.3 1-2.3 2.7 0 1.8 1.2 2.7 2.3 2.7h6.2c2.4 0 3.4 1.1 3.5 3.2h-6.8c-1.7 0-2.6.7-2.6 2.3 0 1.8 1 2.3 2.6 2.3h6.8c-.1 1.8-1 3.4-3.4 3.4h-6.5c-1 0-2.3.8-2.3 2.6 0 1.7 1.2 2.6 2.3 2.6h6.6v-.2z" fill="#ed1c24"/></symbol><symbol viewBox="0 0 477.175 477.175" id="svg--next" xmlns="http://www.w3.org/2000/svg"><path d="M360.731 229.075l-225.1-225.1c-5.3-5.3-13.8-5.3-19.1 0s-5.3 13.8 0 19.1l215.5 215.5-215.5 215.5c-5.3 5.3-5.3 13.8 0 19.1 2.6 2.6 6.1 4 9.5 4 3.4 0 6.9-1.3 9.5-4l225.1-225.1c5.3-5.2 5.3-13.8.1-19z"/></symbol><symbol id="svg--passkey" viewBox="0 0 512 512" xml:space="preserve" xmlns="http://www.w3.org/2000/svg"><style>.jst0{fill:#f5f6fa}</style><path class="jst0" d="M341.3 0c-94.1 0-170.7 76.6-170.7 170.7 0 11.2 1.2 22.7 3.6 34.3l-19.1 9.5c-3.1 1.5-5.2 4.4-5.8 7.8-.6 3.4.6 6.8 3 9.3l13.8 13.8-10.5 10.6h-16.9c-5.9 0-10.7 4.8-10.7 10.7v16.9l-15.1 15.1H96c-5.9 0-10.7 4.8-10.7 10.7v16.9l-15.1 15.1H53.3c-5.9 0-10.7 4.8-10.7 10.7V369L3.1 408.5c-2 2-3.1 4.7-3.1 7.5v85.3c0 5.9 4.8 10.7 10.7 10.7H96c2.8 0 5.5-1.1 7.5-3.1l163.1-163.1 13.8 13.8c2.4 2.4 5.9 3.6 9.3 3 3.4-.6 6.3-2.7 7.8-5.8l9.5-19.1c108.6 22.6 205-61.7 205-167C512 76.6 435.4 0 341.3 0zm-37.4 315.1c-4.8-1.2-9.9 1.1-12.2 5.6L285 334l-10.9-10.9c-4.2-4.2-10.9-4.2-15.1 0L91.6 490.7H21.3v-70.3l39.5-39.5c2-2 3.1-4.7 3.1-7.5v-10.7h10.7c2.8 0 5.5-1.1 7.5-3.1l21.3-21.3c2-2 3.1-4.7 3.1-7.5V320h10.7c2.8 0 5.5-1.1 7.5-3.1l21.3-21.3c2-2 3.1-4.7 3.1-7.5v-10.7H160c2.8 0 5.5-1.1 7.5-3.1l21.3-21.3c4.2-4.2 4.2-10.9 0-15.1l-10.8-11 13.3-6.7c4.5-2.3 6.8-7.3 5.6-12.2-3.3-12.7-4.9-25.2-4.9-37.4 0-82.3 67-149.3 149.3-149.3s149.3 67 149.3 149.3c.1 94.6-88.1 169.9-186.7 144.5z"/><path class="jst0" d="M394.7 64c-29.4 0-53.3 23.9-53.3 53.3s23.9 53.3 53.3 53.3 53.3-23.9 53.3-53.3S424.1 64 394.7 64zm0 85.3c-17.6 0-32-14.4-32-32s14.4-32 32-32 32 14.4 32 32-14.4 32-32 32zM216.5 280.5L67.1 429.8c-4.2 4.2-4.2 10.9 0 15.1 2.1 2.1 4.8 3.1 7.5 3.1s5.5-1 7.5-3.1l149.3-149.3c4.2-4.2 4.2-10.9 0-15.1-4-4.2-10.8-4.2-14.9 0z"/></symbol><symbol viewBox="0 0 477.175 477.175" id="svg--prev" xmlns="http://www.w3.org/2000/svg"><path d="M360.731 229.075l-225.1-225.1c-5.3-5.3-13.8-5.3-19.1 0s-5.3 13.8 0 19.1l215.5 215.5-215.5 215.5c-5.3 5.3-5.3 13.8 0 19.1 2.6 2.6 6.1 4 9.5 4 3.4 0 6.9-1.3 9.5-4l225.1-225.1c5.3-5.2 5.3-13.8.1-19z"/></symbol><symbol id="svg--print" viewBox="0 0 512 512" xml:space="preserve" xmlns="http://www.w3.org/2000/svg"><style>.lst0{fill:#333}</style><path class="lst0" d="M472.2 133.9h-54.3V35.1c0-9.4-7.6-17.1-17.1-17.1H111.2c-9.4 0-17.1 7.6-17.1 17.1v98.8H39.8c-22 0-39.8 17.9-39.8 39.8v171.7c0 22 17.9 39.8 39.8 39.8h54.3v91.6c0 9.4 7.6 17.1 17.1 17.1h289.6c9.4 0 17.1-7.6 17.1-17.1v-91.6h54.3c22 0 39.8-17.9 39.8-39.8V173.7c0-21.9-17.9-39.8-39.8-39.8zM128.3 52.2h255.5v81.7H128.3V52.2zm255.4 407.6H128.3V320.2h255.5c-.1 4.2-.1 136.4-.1 139.6zm94.2-114.4c0 3.1-2.6 5.7-5.7 5.7h-54.3v-48c0-9.4-7.6-17.1-17.1-17.1H111.2c-9.4 0-17.1 7.6-17.1 17.1v48H39.8c-3.1 0-5.7-2.6-5.7-5.7V173.7c0-3.1 2.6-5.7 5.7-5.7h432.4c3.1 0 5.7 2.6 5.7 5.7v171.7z"/><path class="lst0" d="M400.8 200h-43.4c-9.4 0-17.1 7.6-17.1 17.1s7.6 17.1 17.1 17.1h43.4c9.4 0 17.1-7.6 17.1-17.1s-7.7-17.1-17.1-17.1zM330 399.8H182c-9.4 0-17.1 7.6-17.1 17.1S172.6 434 182 434h148c9.4 0 17.1-7.6 17.1-17.1s-7.7-17.1-17.1-17.1zm0-53.8H182c-9.4 0-17.1 7.6-17.1 17.1s7.6 17.1 17.1 17.1h148c9.4 0 17.1-7.6 17.1-17.1S339.4 346 330 346z"/></symbol><symbol viewBox="0 0 512 512" id="svg--recycling" xmlns="http://www.w3.org/2000/svg"><path d="M406 60h-75V45c0-24.813-20.187-45-45-45h-60c-24.813 0-45 20.187-45 45v15h-75c-24.813 0-45 20.187-45 45v30c0 8.284 6.716 15 15 15h15v317c0 24.813 20.187 45 45 45h240c24.813 0 45-20.187 45-45V150h15c8.284 0 15-6.716 15-15v-30c0-24.813-20.187-45-45-45zM211 45c0-8.271 6.729-15 15-15h60c8.271 0 15 6.729 15 15v15h-90V45zm180 422c0 8.271-6.729 15-15 15H136c-8.271 0-15-6.729-15-15V150h270v317zm30-347H91v-15c0-8.271 6.729-15 15-15h300c8.271 0 15 6.729 15 15v15z"/><path d="M256 211c-26.336 0-51.041 9.886-69.879 26.657V226c0-8.284-6.716-15-15-15s-15 6.716-15 15v60c0 .053.007.105.008.158.086 8.257 6.867 14.842 14.992 14.842H226c8.284 0 15-6.716 15-15s-6.716-15-15-15h-30.014c13.925-18.52 36.023-30 60.014-30 41.355 0 75 33.645 75 75s-33.645 75-75 75c-20.033 0-38.867-7.801-53.033-21.967-5.857-5.858-15.355-5.858-21.213 0-5.858 5.858-5.858 15.355 0 21.213C201.586 410.078 227.954 421 256 421c57.897 0 105-47.103 105-105s-47.103-105-105-105z"/></symbol><symbol id="svg--result" viewBox="0 0 512 512" xml:space="preserve" xmlns="http://www.w3.org/2000/svg"><style>.nst0{fill:#f5f6fa}</style><path class="nst0" d="M431 159L294 22C280.4 8.4 261.7 0 241 0H59v512h394V212c0-20.7-8.4-39.4-22-53zM316 86.4l50.6 50.6H316V86.4zM423 482H89V30h152c24.8 0 45 20.2 45 45v92h92c24.8 0 45 20.2 45 45v270z"/><path class="nst0" d="M134 407h176.5v30H134v-30zm0-60h244v30H134v-30zm0-60h244v30H134v-30zm0-60h244v30H134v-30z"/></symbol><symbol id="svg--save" viewBox="0 0 512 512" xml:space="preserve" xmlns="http://www.w3.org/2000/svg"><style>.ost0{fill:#333}</style><path class="ost0" d="M506.5 124.1L387.9 5.5c-3.4-3.4-8.2-5.5-13.2-5.5h-356C8.4 0 0 8.4 0 18.7v474.5C0 503.6 8.4 512 18.7 512h474.5c10.3 0 18.7-8.4 18.7-18.7V137.4c.1-5-1.9-9.8-5.4-13.3zM156.1 37.5h199.8v110.8H156.1V37.5zm244.4 437H111.6V316.9h288.9v157.6zm74 0h-36.6V298.2c0-10.3-8.4-18.7-18.7-18.7H92.8c-10.3 0-18.7 8.4-18.7 18.7v176.3H37.5v-437h81.2V167c0 10.3 8.4 18.7 18.7 18.7h237.3c10.3 0 18.7-8.4 18.7-18.7V64l81.2 81.2v329.3z"/><path class="ost0" d="M309.5 55c-10.3 0-18.7 8.4-18.7 18.7V112c0 10.3 8.4 18.7 18.7 18.7 10.3 0 18.7-8.4 18.7-18.7V73.7c0-10.3-8.3-18.7-18.7-18.7z"/></symbol><symbol id="svg--setting" viewBox="0 0 512 512" xml:space="preserve" xmlns="http://www.w3.org/2000/svg"><style>.pst0{fill:#f5f6fa}</style><path class="pst0" d="M272.1 512H240c-26 0-47.1-21.1-47.1-47.1V454c-11-3.5-21.8-8-32.1-13.3l-7.7 7.7c-18.7 18.7-48.5 18.1-66.7 0l-22.7-22.7c-18.1-18.1-18.7-48 0-66.7l7.7-7.7c-5.3-10.3-9.8-21-13.3-32.1h-11c-26 0-47.1-21.1-47.1-47.1V240c0-26 21.1-47.1 47.1-47.1H58c3.5-11.1 8-21.8 13.3-32.1l-7.7-7.7c-18.7-18.6-18.2-48.5 0-66.7l22.7-22.7c18.2-18.2 48-18.6 66.7 0l7.7 7.7c10.3-5.3 21-9.8 32.1-13.3v-11c0-26 21.1-47.1 47.1-47.1H272c26 0 47.1 21.1 47.1 47.1V58c11 3.5 21.8 8 32.1 13.3l7.7-7.7c18.7-18.7 48.5-18.1 66.7 0l22.7 22.7c18.1 18.1 18.7 48 0 66.7l-7.7 7.7c5.3 10.3 9.8 21 13.3 32.1h10.9c26 0 47.1 21.1 47.1 47.1V272c0 26-21.1 47.1-47.1 47.1H454c-3.5 11-8 21.8-13.3 32.1l7.7 7.7c18.7 18.6 18.2 48.5 0 66.7l-22.7 22.7c-18.2 18.2-48 18.6-66.7 0l-7.7-7.7c-10.3 5.3-21 9.8-32.1 13.3v10.9c0 26.1-21.1 47.2-47.1 47.2zM165.7 409.2c14.3 8.5 29.7 14.9 45.8 19 6.6 1.7 11.3 7.7 11.3 14.5v22.1c0 9.4 7.7 17.1 17.1 17.1H272c9.4 0 17.1-7.7 17.1-17.1v-22.1c0-6.8 4.6-12.8 11.3-14.5 16.1-4.2 31.5-10.6 45.8-19 5.9-3.5 13.4-2.5 18.2 2.3l15.7 15.7c6.8 6.8 17.6 6.6 24.2 0l22.7-22.7c6.6-6.6 6.8-17.4 0-24.2l-15.7-15.7c-4.8-4.8-5.8-12.3-2.3-18.2 8.5-14.3 14.9-29.7 19-45.8 1.7-6.6 7.7-11.3 14.5-11.3h22.1c9.4 0 17.1-7.7 17.1-17.1v-32.1c0-9.4-7.7-17.1-17.1-17.1h-22.1c-6.8 0-12.8-4.6-14.5-11.3-4.2-16.1-10.6-31.5-19-45.8-3.5-5.9-2.5-13.4 2.3-18.2L427 132c6.8-6.8 6.6-17.6 0-24.2l-22.7-22.7c-6.6-6.6-17.5-6.8-24.2 0l-15.7 15.7c-4.8 4.8-12.4 5.8-18.2 2.3-14.3-8.5-29.7-14.9-45.8-19-6.6-1.7-11.3-7.7-11.3-14.5V47.1c0-9.4-7.7-17.1-17.1-17.1h-32.1c-9.4 0-17.1 7.7-17.1 17.1v22.1c0 6.8-4.6 12.8-11.3 14.5-16.1 4.2-31.5 10.6-45.8 19-5.9 3.5-13.4 2.5-18.2-2.3l-15.7-15.7c-6.8-6.8-17.6-6.6-24.2 0l-22.7 22.7c-6.6 6.6-6.8 17.4 0 24.2l15.7 15.7c4.8 4.8 5.8 12.3 2.3 18.2-8.5 14.3-14.9 29.7-19 45.8-1.7 6.6-7.7 11.3-14.5 11.3H47.1c-9.4 0-17.1 7.7-17.1 17.1v32.1c0 9.4 7.7 17.1 17.1 17.1h22.1c6.8 0 12.8 4.6 14.5 11.3 4.2 16.1 10.6 31.5 19 45.8 3.5 5.9 2.5 13.4-2.3 18.2l-15.7 15.7c-6.8 6.8-6.6 17.6 0 24.2l22.7 22.7c6.6 6.6 17.5 6.8 24.2 0l15.7-15.7c3.7-3.2 11.2-6.2 18.4-1.9z"/><path class="pst0" d="M256 367.4c-61.4 0-111.4-50-111.4-111.4s50-111.4 111.4-111.4 111.4 50 111.4 111.4-50 111.4-111.4 111.4zm0-192.8c-44.9 0-81.4 36.5-81.4 81.4s36.5 81.4 81.4 81.4 81.4-36.5 81.4-81.4-36.5-81.4-81.4-81.4z"/></symbol></svg>